Coordinates
version=1
nRows=19
nColumns=24
inDegrees=yes

Units are S.I. units (second, meters, Newtons, ...)
Angles are in degrees.

endheader
time	pelvis_tilt	pelvis_list	pelvis_rotation	pelvis_tx	pelvis_ty	pelvis_tz	hip_flexion_r	hip_adduction_r	hip_rotation_r	knee_angle_r	ankle_angle_r	subtalar_angle_r	mtp_angle_r	hip_flexion_l	hip_adduction_l	hip_rotation_l	knee_angle_l	ankle_angle_l	subtalar_angle_l	mtp_angle_l	lumbar_extension	lumbar_bending	lumbar_rotation
      3.53000000	     -4.74051460	      3.34498157	      5.63051370	     -0.26083180	     -0.03096323	     -0.18033930	     34.97823259	     -1.91333282	     -0.65804232	    -15.65800460	      3.74904835	      7.34918520	      8.35949854	    -11.77205705	      6.93540006	     -0.04983156	    -19.07633840	      9.89713578	     22.19372890	      0.23080047	      3.44968711	     -6.12325349	     -9.93793662
      3.53500000	     -4.76827717	      3.17326030	      5.65824617	     -0.25293813	     -0.03144742	     -0.17986146	     34.88434575	     -1.58567297	     -0.49796743	    -16.28348485	      3.01411131	      6.71707346	      9.02314763	    -11.73686578	      6.51090277	     -0.49645497	    -19.82476263	      8.40942338	     22.72527938	      3.86282589	      3.62639449	     -5.91818267	     -9.92625504
      3.54000000	     -4.87053537	      2.97315803	      5.63377625	     -0.24497349	     -0.03200688	     -0.17937880	     34.91703031	     -1.23626702	     -0.48986495	    -17.04538912	      2.57834403	      6.65203256	      9.19513889	    -11.50738296	      6.05140351	     -1.08801279	    -20.93595617	      7.53739903	     23.63639351	      4.94021919	      3.91011514	     -5.66566483	     -9.77476722
      3.54500000	     -4.89837825	      2.76515881	      5.73146127	     -0.23707724	     -0.03227174	     -0.17892621	     34.77679653	     -0.92293052	     -0.43927013	    -17.60711933	      1.66808975	      6.10533530	      9.91757701	    -11.37749975	      5.52669118	     -1.50849419	    -21.73545510	      5.63402985	     24.26687552	      9.21836910	      4.07942017	     -5.43765076	     -9.85020733
      3.55000000	     -4.99092067	      2.51165492	      5.72963950	     -0.22912804	     -0.03258524	     -0.17833822	     34.74048103	     -0.50860991	     -0.30529639	    -18.23822642	      0.87212765	      5.78922781	     10.09992953	    -11.08908108	      4.93975237	     -2.13070210	    -22.75907517	      4.00326379	     25.18196244	     12.11597224	      4.33848734	     -5.15660416	     -9.81183857
      3.55500000	     -5.11297346	      2.17407471	      5.63890695	     -0.22106558	     -0.03286702	     -0.17770923	     34.73806320	      0.03092603	     -0.15070209	    -18.83013062	     -0.07462376	      5.48358074	     10.31484743	    -10.74810900	      4.26998460	     -2.80882894	    -23.78185555	      2.21206788	     26.03900558	     15.09819108	      4.67043749	     -4.75529083	     -9.60816678
      3.56000000	     -5.24943178	      1.89457966	      5.51660090	     -0.21323200	     -0.03312865	     -0.17689543	     34.79936419	      0.56339906	      0.18355326	    -19.48611048	     -1.06139517	      5.09307753	     10.26191676	    -10.29923803	      3.62594428	     -3.50146773	    -24.94434698	      0.36931180	     27.07958484	     17.66075616	      4.96262291	     -4.43740123	     -9.35983980
      3.56500000	     -5.31676530	      1.50598363	      5.52611660	     -0.20526989	     -0.03315357	     -0.17637855	     34.72969355	      1.08446584	      0.20440341	    -20.07784352	     -1.85450139	      5.09915490	     10.32116282	     -9.91595394	      2.84245365	     -4.00413226	    -25.94221666	     -2.06586793	     27.84727153	     21.73079803	      5.20818989	     -3.99485801	     -9.29428143
      3.57000000	     -5.46553737	      1.10377236	      5.41564713	     -0.19727316	     -0.03329405	     -0.17568951	     34.76237380	      1.73162237	      0.61060093	    -20.70554603	     -2.71583129	      4.86891565	     10.05499412	     -9.37375157	      2.05840617	     -4.58673019	    -27.13512246	     -4.35188588	     28.60980589	     24.37299358	      5.55950647	     -3.53494601	     -9.10806513
      3.57500000	     -5.59097325	      0.75615573	      5.33683882	     -0.18944433	     -0.03340089	     -0.17498597	     34.80637955	      2.30676597	      0.93107412	    -21.40518816	     -3.43740506	      4.75939644	      9.79828434	     -8.79622702	      1.31599661	     -5.02450369	    -28.34864199	     -6.86878290	     29.35984744	     27.08143258	      5.84170269	     -3.14602013	     -8.92834319
      3.58000000	     -5.78032510	      0.42155599	      5.23729528	     -0.18168257	     -0.03359871	     -0.17426457	     34.92095419	      2.90609468	      1.45633671	    -22.12607293	     -4.19106579	      4.44462727	      9.44870179	     -8.05991705	      0.61501713	     -5.35323628	    -29.75846575	     -9.26019082	     29.95791101	     28.36337728	      6.18165130	     -2.77738588	     -8.77272725
      3.58500000	     -5.90992961	      0.00959896	      5.14635890	     -0.17372496	     -0.03373623	     -0.17370416	     34.92305082	      3.55082650	      1.83819889	    -22.80283774	     -4.69855865	      4.31628016	      9.14658730	     -7.39141384	     -0.15098027	     -5.61786387	    -31.05418545	    -12.01075762	     30.19136676	     30.25836104	      6.51019348	     -2.29678152	     -8.57277711
      3.59000000	     -6.06680687	     -0.38223055	      5.06260064	     -0.16593026	     -0.03395594	     -0.17314212	     34.96308733	      4.17032283	      2.22165588	    -23.48054758	     -5.19690316	      4.09937641	      8.94518849	     -6.57849984	     -0.87747142	     -5.74053700	    -32.60532547	    -14.43359618	     30.47275886	     30.29414242	      6.83485828	     -1.84747469	     -8.42401714
      3.59500000	     -6.12900974	     -0.76487247	      4.99163410	     -0.15821379	     -0.03412509	     -0.17264346	     34.88148921	      4.77107444	      2.54495601	    -24.13379286	     -5.54806547	      3.84512821	      8.79259175	     -5.80863223	     -1.57641044	     -5.84395577	    -34.19283849	    -16.95352320	     30.28168422	     30.05425913	      7.04436506	     -1.40643093	     -8.27114811
      3.60000000	     -6.23017465	     -1.14943488	      4.87815926	     -0.15052977	     -0.03436126	     -0.17209135	     34.81234211	      5.40297159	      2.92722956	    -24.73319328	     -5.88142999	      3.42577923	      8.61118223	     -4.95913442	     -2.24392520	     -5.87841050	    -35.78755676	    -19.50606917	     29.89268099	     29.62059895	      7.28863739	     -0.95902915	     -8.10271324
      3.60500000	     -6.39329267	     -1.51805363	      4.72445841	     -0.14291341	     -0.03470641	     -0.17140926	     34.79032036	      6.05797104	      3.38725659	    -25.29685596	     -6.21952126	      2.77878927	      8.42390267	     -3.99041172	     -2.87408434	     -5.88943732	    -37.43892507	    -21.96740931	     29.32056054	     28.74736604	      7.59411433	     -0.54139812	     -7.88890947
      3.61000000	     -6.54150571	     -1.91993411	      4.54183495	     -0.13543073	     -0.03511984	     -0.17069612	     34.75125784	      6.73987951	      3.70648211	    -25.81892207	     -6.53320527	      2.12643371	      8.46532614	     -2.93387144	     -3.54397369	     -5.97652667	    -39.32277647	    -23.95049067	     28.58715515	     26.41194642	      7.85926319	     -0.09035969	     -7.66518747
      3.61500000	     -6.61018831	     -2.37041335	      4.38433161	     -0.12791951	     -0.03539490	     -0.17017892	     34.54603304	      7.43021405	      3.95591712	    -26.20933585	     -6.70184999	      1.56567210	      8.68309134	     -1.92866896	     -4.21012654	     -5.92106800	    -41.24035874	    -25.61677407	     27.56467574	     23.28247486	      8.05565797	      0.44705118	     -7.44662144
      3.62000000	     -6.68326958	     -2.80902296	      4.19391239	     -0.12055732	     -0.03570506	     -0.16951769	     34.33775669	      8.13615116	      4.19515698	    -26.57244703	     -6.82720044	      0.94325243	      8.91108985	     -0.86975126	     -4.87594399	     -5.93618468	    -43.18667032	    -27.08954473	     26.34981333	     20.13704782	      8.22623638	      0.95522745	     -7.21718630
